<?xml version="1.0" encoding="utf-8"?>
<!-- Generator: Adobe Illustrator 24.1.2, SVG Export Plug-In . SVG Version: 6.00 Build 0)  -->
<svg version="1.1" id="Layer_1" xmlns="http://www.w3.org/2000/svg" xmlns:xlink="http://www.w3.org/1999/xlink" x="0px" y="0px"
	 viewBox="0 0 810.9 200.5" style="enable-background:new 0 0 810.9 200.5;" xml:space="preserve">
<style type="text/css">
	.st0{fill:#FFFFFF;}
	.st1{fill:#FFF500;}
</style>
<g>
	<path class="st0" d="M1.5,0.8h39.6c0.9,0,1.5,0.8,1.5,1.5v102.2c0,1.5,1.7,2.1,2.7,1C60.1,88.4,74.9,71.1,89.5,54
		c0.3-0.4,0.8-0.5,1.1-0.5c13,0,26,0.1,39,0.1c6.1,0,9.4,7.2,5.4,11.9c-17,19.5-34,39.1-51,58.6c-0.5,0.6-0.5,1.5,0,2
		c17.3,19.7,34.4,39.5,51.6,59.1c4,4.6,0.8,11.9-5.4,11.9c-12.6,0-25.2-0.1-37.9-0.1c-0.4,0-0.9-0.1-1.1-0.5l-45.9-49.7
		c-1-1-2.7-0.4-2.7,1l-0.2,47.6c0,0.9-0.8,1.6-1.6,1.5l-39.2-0.5c-0.9,0-1.5-0.8-1.5-1.5V2.4C0,1.4,0.6,0.8,1.5,0.8z"/>
	<g>
		<path class="st0" d="M275.3,108v86.4c0,1.6-1.3,2.9-2.9,2.9H236c-1.6,0-2.9-1.3-2.9-2.9c-0.3-26.6-0.5-53.3-0.9-79.9
			c0-0.3,0-0.4,0-0.5c0.4-1.7,1.4-9-3.6-15.1c-4-4.9-9.5-6-11.1-6.3c-0.1,0-0.3,0-0.4,0c-20.8-0.1-41.5-0.3-62.1-0.5
			c-1.6,0-2.9-1.3-2.9-2.9V57.6c0-1.6,1.3-2.9,2.9-2.9c22.8,0,37.3,0,67.6,0C254,54.6,275.3,92.8,275.3,108z"/>
		<path class="st0" d="M183.9,158.5h31.3c2.1,0,3.8,1.8,4.9,3.9v31c-1.1,2-2.9,3.6-4.9,3.6h-39.4c-44.9,0.4-51.5-90.4,0-90.9h39.4
			c2.1,0,3.8,1.7,4.9,3.6v30.4c-1.1,2.4-2.9,4.6-5,4.6c-10.1-0.1-31.4-0.1-31.4-0.1s-1.6-0.1-2.9,1.1c-2.4,2.5-2.1,6-2.1,6.3
			c0.1,0.8,0.3,2.9,2,4.6C181.9,157.8,183.1,158.3,183.9,158.5z"/>
	</g>
	<path class="st0" d="M295.1,196.7h33.1c2.6,0,4.7-2.1,4.7-4.7v-79.4c0,0,3.9-21.1,23.3-21.1c20.1-0.1,23.9,19.9,23.9,19.9V192
		c0,2.6,2.1,4.7,4.7,4.7h33.4c2.6,0,4.7-2.1,4.7-4.7v-81.9c0,0-4.1-59.6-66.4-59.6c-65.5,0-66.4,61.4-66.4,61.4v80
		C290.4,194.6,292.5,196.7,295.1,196.7z"/>
	<g>
		<path class="st1" d="M544.9,7.9L544.8,52c-10-4.9-21.3-7.8-33.1-7.8c-42.4,0-76.7,35-76.7,78.1s34.4,76.9,76.7,78.1
			c43.2,1.3,77.9-33.4,76.8-78.1V7.9c0-4.2-3.5-7.8-7.8-7.8h-28.1C548.4,0.1,544.9,3.6,544.9,7.9z M514.9,166
			c-24.2,2-42-16.6-42.2-43.4c-0.3-25,18-43.6,42.2-43.4c24,0.1,42,18.8,42.3,43.4C557.4,147,539.5,163.9,514.9,166z"/>
		<path class="st1" d="M509.9,125.4v-33c0-1.4,1.1-2.5,2.5-2.5h3.9c1.4,0,2.5,1.1,2.5,2.5v24.9c0,0.9,0.8,1.5,1.5,1.5l25-0.1
			c1.4,0,2.5,1.1,2.5,2.5v4c0,1.4-1.1,2.5-2.5,2.5h-33C511,127.9,509.9,126.7,509.9,125.4z"/>
	</g>
	<g>
		<path class="st1" d="M767.4,7.9L767.3,52c-10-4.9-21.3-7.8-33.1-7.8c-42.4,0-76.8,35-76.8,78.1s34.4,76.9,76.8,78.1
			c43.2,1.3,77.9-33.4,76.8-78.1V7.9c0-4.2-3.5-7.8-7.8-7.8H775C770.8,0.1,767.4,3.6,767.4,7.9z M737.4,166
			c-24.3,2-42-16.6-42.3-43.4c-0.3-25,18-43.6,42.3-43.4c24,0.1,42,18.8,42.3,43.4C779.7,147,761.9,163.9,737.4,166z"/>
		<path class="st1" d="M732.4,125.4v-33c0-1.4,1.1-2.5,2.5-2.5h3.9c1.4,0,2.5,1.1,2.5,2.5v24.9c0,0.9,0.7,1.5,1.5,1.5l25-0.1
			c1.4,0,2.5,1.1,2.5,2.5v4c0,1.4-1.1,2.5-2.5,2.5h-33C733.5,127.9,732.4,126.7,732.4,125.4z"/>
	</g>
	<g>
		<path class="st1" d="M602.8,4.4v29.5c0,2.4,2,4.2,4.4,4.2h33.6c2.4,0,4.4-1.9,4.4-4.2V4.2c0-2.4-2-4.2-4.4-4.2h-33.6
			C604.7,0.1,602.8,2,602.8,4.4z"/>
		<path class="st1" d="M602.8,58v133.9c0,3.4,2.9,6.3,6.4,6.3h29.5c3.5,0,6.4-2.8,6.4-6.3V58c0-3.4-2.9-6.3-6.4-6.3h-29.5
			C605.6,51.7,602.8,54.5,602.8,58z"/>
	</g>
</g>
</svg>
