<?xml version="1.0" encoding="utf-8"?>
<!-- Generator: Adobe Illustrator 24.1.2, SVG Export Plug-In . SVG Version: 6.00 Build 0)  -->
<svg version="1.1" id="Layer_1" xmlns="http://www.w3.org/2000/svg" xmlns:xlink="http://www.w3.org/1999/xlink" x="0px" y="0px"
	 viewBox="0 0 800 800" style="enable-background:new 0 0 800 800;" xml:space="preserve">
<style type="text/css">
	.st0{fill:#FFFFFF;}
</style>
<path class="st0" d="M0,57.3C0,25.7,26.3,0,58.7,0h682.5C773.7,0,800,25.7,800,57.3v685.4c0,31.7-26.3,57.3-58.8,57.3H58.7
	C26.3,800,0,774.4,0,742.7V57.3z M247.1,669.7V308.5h-120v361.3H247.1z M187.1,259.1c41.9,0,67.9-27.7,67.9-62.4
	c-0.7-35.4-26-62.4-67.1-62.4s-68,27-68,62.4c0,34.7,26.1,62.4,66.3,62.4H187.1z M432.5,669.7V468c0-10.8,0.8-21.6,4-29.3
	c8.7-21.5,28.4-43.9,61.6-43.9c43.5,0,60.8,33.1,60.8,81.7v193.3h120V462.5c0-111-59.2-162.6-138.2-162.6
	c-63.7,0-92.3,35-108.3,59.6v1.3h-0.8c0.3-0.4,0.5-0.8,0.8-1.3v-51.1h-120c1.5,33.9,0,361.3,0,361.3H432.5z"/>
</svg>
