<?xml version="1.0" encoding="utf-8"?>
<!-- Generator: Adobe Illustrator 24.1.2, SVG Export Plug-In . SVG Version: 6.00 Build 0)  -->
<svg version="1.1" id="Layer_1" xmlns="http://www.w3.org/2000/svg" xmlns:xlink="http://www.w3.org/1999/xlink" x="0px" y="0px"
	 viewBox="0 0 1000 1000" style="enable-background:new 0 0 1000 1000;" xml:space="preserve">
<g>
	<path d="M120,411.9h39.6c0.9,0,1.5,0.8,1.5,1.5v102.3c0,1.5,1.7,2.1,2.7,1c14.8-17.1,29.5-34.4,44.1-51.5c0.2-0.4,0.8-0.5,1.1-0.5
		c13,0,26,0.1,39,0.1c6.1,0,9.4,7.3,5.4,11.9c-17,19.5-34,39.1-51,58.6c-0.5,0.6-0.5,1.5,0,2c17.3,19.7,34.4,39.5,51.6,59.1
		c4,4.6,0.8,11.9-5.4,11.9c-12.6,0-25.3-0.1-37.9-0.1c-0.4,0-0.9-0.1-1.1-0.5l-45.9-49.7c-1-1-2.7-0.4-2.7,1l-0.3,47.6
		c0,0.9-0.8,1.6-1.6,1.5l-39.3-0.5c-0.9,0-1.5-0.8-1.5-1.5V413.5C118.5,412.5,119.1,411.9,120,411.9z"/>
	<g>
		<path d="M393.8,519.1v86.4c0,1.6-1.3,2.9-2.9,2.9h-36.4c-1.6,0-2.9-1.3-2.9-2.9c-0.3-26.6-0.5-53.3-0.9-79.9c0-0.3,0-0.4,0-0.5
			c0.4-1.8,1.4-9-3.6-15.1c-4-4.9-9.5-6-11.1-6.3c-0.1,0-0.3,0-0.4,0c-20.8-0.1-41.5-0.3-62.1-0.5c-1.6,0-2.9-1.3-2.9-2.9v-31.6
			c0-1.6,1.3-2.9,2.9-2.9c22.8,0,37.3,0,67.6,0C372.5,465.8,393.8,503.9,393.8,519.1z"/>
		<path d="M302.4,569.6h31.3c2.1,0,3.8,1.8,4.9,3.9v31c-1.1,2-2.9,3.6-4.9,3.6h-39.4c-44.9,0.4-51.5-90.4,0-90.9h39.4
			c2.1,0,3.8,1.8,4.9,3.6v30.4c-1.1,2.4-2.9,4.6-5,4.6c-10.1-0.1-31.4-0.1-31.4-0.1s-1.6-0.1-2.9,1.1c-2.4,2.5-2.1,6-2.1,6.3
			c0.1,0.8,0.3,2.9,2,4.6C300.4,568.9,301.6,569.4,302.4,569.6z"/>
	</g>
	<path d="M413.6,607.9h33.1c2.6,0,4.7-2.1,4.7-4.8v-79.4c0,0,3.9-21.1,23.3-21.1c20.1-0.1,23.9,19.9,23.9,19.9v80.6
		c0,2.6,2.1,4.8,4.7,4.8h33.4c2.6,0,4.8-2.1,4.8-4.8v-81.9c0,0-4.1-59.6-66.4-59.6c-65.5,0-66.4,61.4-66.4,61.4v80
		C408.9,605.8,411,607.9,413.6,607.9z"/>
	<g>
		<path d="M663.4,419l-0.1,44.1c-10-4.9-21.3-7.8-33.1-7.8c-42.4,0-76.8,35-76.8,78.1s34.4,76.9,76.8,78.1
			c43.2,1.3,77.9-33.4,76.8-78.1V419c0-4.3-3.5-7.8-7.8-7.8H671C666.9,411.3,663.4,414.7,663.4,419z M633.4,577.1
			c-24.3,2-42-16.6-42.2-43.4c-0.3-25,18-43.6,42.2-43.4c24,0.1,42,18.8,42.3,43.4C675.9,558.1,658,575,633.4,577.1z"/>
		<path d="M628.4,536.5v-33c0-1.4,1.1-2.5,2.5-2.5h3.9c1.4,0,2.5,1.1,2.5,2.5v24.9c0,0.9,0.8,1.5,1.5,1.5l25-0.1
			c1.4,0,2.5,1.1,2.5,2.5v4c0,1.4-1.1,2.5-2.5,2.5h-33C629.5,539,628.4,537.9,628.4,536.5z"/>
	</g>
	<g>
		<path d="M885.9,419l-0.1,44.1c-10-4.9-21.3-7.8-33.1-7.8c-42.4,0-76.8,35-76.8,78.1s34.4,76.9,76.8,78.1
			c43.2,1.3,77.9-33.4,76.8-78.1V419c0-4.3-3.5-7.8-7.8-7.8h-28.1C889.3,411.3,885.9,414.7,885.9,419z M855.9,577.1
			c-24.3,2-42-16.6-42.2-43.4c-0.3-25,18-43.6,42.2-43.4c24,0.1,42,18.8,42.3,43.4C898.3,558.1,880.4,575,855.9,577.1z"/>
		<path d="M850.9,536.5v-33c0-1.4,1.1-2.5,2.5-2.5h3.9c1.4,0,2.5,1.1,2.5,2.5v24.9c0,0.9,0.7,1.5,1.5,1.5l25-0.1
			c1.4,0,2.5,1.1,2.5,2.5v4c0,1.4-1.1,2.5-2.5,2.5h-33C852,539,850.9,537.9,850.9,536.5z"/>
	</g>
	<g>
		<path d="M721.3,415.5V445c0,2.4,2,4.3,4.4,4.3h33.6c2.4,0,4.4-1.9,4.4-4.3v-29.6c0-2.4-2-4.2-4.4-4.2h-33.6
			C723.3,411.3,721.3,413.1,721.3,415.5z"/>
		<path d="M721.3,469.1V603c0,3.4,2.9,6.3,6.4,6.3h29.5c3.5,0,6.4-2.8,6.4-6.3V469.1c0-3.4-2.9-6.3-6.4-6.3h-29.5
			C724.1,462.9,721.3,465.6,721.3,469.1z"/>
	</g>
</g>
</svg>
