<?xml version="1.0" encoding="utf-8"?>
<!-- Generator: Adobe Illustrator 24.1.2, SVG Export Plug-In . SVG Version: 6.00 Build 0)  -->
<svg version="1.1" id="Layer_1" xmlns="http://www.w3.org/2000/svg" xmlns:xlink="http://www.w3.org/1999/xlink" x="0px" y="0px"
	 viewBox="0 0 811.2 200.3" style="enable-background:new 0 0 811.2 200.3;" xml:space="preserve">
<g>
	<path d="M1.7,0.7h39.6c0.9,0,1.5,0.8,1.5,1.5v102.3c0,1.5,1.7,2.1,2.7,1C60.3,88.4,75,71.1,89.6,54c0.2-0.4,0.8-0.5,1.1-0.5
		c13,0,26,0.1,39,0.1c6.1,0,9.4,7.3,5.4,11.9c-17,19.5-34,39.1-51,58.6c-0.5,0.6-0.5,1.5,0,2c17.3,19.7,34.4,39.5,51.6,59.1
		c4,4.6,0.8,11.9-5.4,11.9c-12.6,0-25.3-0.1-37.9-0.1c-0.4,0-0.9-0.1-1.1-0.5l-45.9-49.7c-1-1-2.7-0.4-2.7,1l-0.3,47.6
		c0,0.9-0.8,1.6-1.6,1.5l-39.3-0.5c-0.9,0-1.5-0.8-1.5-1.5V2.3C0.2,1.3,0.8,0.7,1.7,0.7z"/>
	<g>
		<path d="M275.5,107.9v86.4c0,1.6-1.3,2.9-2.9,2.9h-36.4c-1.6,0-2.9-1.3-2.9-2.9c-0.3-26.6-0.5-53.3-0.9-79.9c0-0.3,0-0.4,0-0.5
			c0.4-1.8,1.4-9-3.6-15.1c-4-4.9-9.5-6-11.1-6.3c-0.1,0-0.3,0-0.4,0c-20.8-0.1-41.5-0.3-62.1-0.5c-1.6,0-2.9-1.3-2.9-2.9V57.5
			c0-1.6,1.3-2.9,2.9-2.9c22.8,0,37.3,0,67.6,0C254.2,54.6,275.5,92.7,275.5,107.9z"/>
		<path d="M184.1,158.4h31.3c2.1,0,3.8,1.8,4.9,3.9v31c-1.1,2-2.9,3.6-4.9,3.6H176c-44.9,0.4-51.5-90.4,0-90.9h39.4
			c2.1,0,3.8,1.8,4.9,3.6V140c-1.1,2.4-2.9,4.6-5,4.6c-10.1-0.1-31.4-0.1-31.4-0.1s-1.6-0.1-2.9,1.1c-2.4,2.5-2.1,6-2.1,6.3
			c0.1,0.8,0.3,2.9,2,4.6C182.1,157.7,183.3,158.2,184.1,158.4z"/>
	</g>
	<path d="M295.3,196.7h33.1c2.6,0,4.7-2.1,4.7-4.8v-79.4c0,0,3.9-21.1,23.3-21.1c20.1-0.1,23.9,19.9,23.9,19.9v80.6
		c0,2.6,2.1,4.8,4.7,4.8h33.4c2.6,0,4.8-2.1,4.8-4.8V110c0,0-4.1-59.6-66.4-59.6c-65.5,0-66.4,61.4-66.4,61.4v80
		C290.6,194.6,292.7,196.7,295.3,196.7z"/>
	<g>
		<path d="M545.1,7.8L545,51.9c-10-4.9-21.3-7.8-33.1-7.8c-42.4,0-76.8,35-76.8,78.1s34.4,76.9,76.8,78.1
			c43.2,1.3,77.9-33.4,76.8-78.1V7.8c0-4.3-3.5-7.8-7.8-7.8h-28.2C548.6,0.1,545.1,3.5,545.1,7.8z M515.1,165.9
			c-24.3,2-42-16.6-42.2-43.4c-0.3-25,18-43.6,42.2-43.4c24,0.1,42,18.8,42.3,43.4C557.6,146.9,539.7,163.8,515.1,165.9z"/>
		<path d="M510.1,125.3v-33c0-1.4,1.1-2.5,2.5-2.5h3.9c1.4,0,2.5,1.1,2.5,2.5v24.9c0,0.9,0.8,1.5,1.5,1.5l25-0.1
			c1.4,0,2.5,1.1,2.5,2.5v4c0,1.4-1.1,2.5-2.5,2.5h-33C511.2,127.8,510.1,126.7,510.1,125.3z"/>
	</g>
	<g>
		<path d="M767.6,7.8l-0.1,44.1c-10-4.9-21.3-7.8-33.1-7.8c-42.4,0-76.8,35-76.8,78.1s34.4,76.9,76.8,78.1
			c43.2,1.3,77.9-33.4,76.8-78.1V7.8c0-4.3-3.5-7.8-7.8-7.8h-28.1C771,0.1,767.6,3.5,767.6,7.8z M737.6,165.9
			c-24.3,2-42-16.6-42.2-43.4c-0.3-25,18-43.6,42.2-43.4c24,0.1,42,18.8,42.3,43.4C780,146.9,762.1,163.8,737.6,165.9z"/>
		<path d="M732.6,125.3v-33c0-1.4,1.1-2.5,2.5-2.5h3.9c1.4,0,2.5,1.1,2.5,2.5v24.9c0,0.9,0.7,1.5,1.5,1.5l25-0.1
			c1.4,0,2.5,1.1,2.5,2.5v4c0,1.4-1.1,2.5-2.5,2.5h-33C733.7,127.8,732.6,126.7,732.6,125.3z"/>
	</g>
	<g>
		<path d="M603,4.3v29.5c0,2.4,2,4.3,4.4,4.3H641c2.4,0,4.4-1.9,4.4-4.3V4.2c0-2.4-2-4.2-4.4-4.2h-33.6C605,0.1,603,1.9,603,4.3z"/>
		<path d="M603,57.9v133.9c0,3.4,2.9,6.3,6.4,6.3h29.5c3.5,0,6.4-2.8,6.4-6.3V57.9c0-3.4-2.9-6.3-6.4-6.3h-29.5
			C605.8,51.7,603,54.4,603,57.9z"/>
	</g>
</g>
</svg>
