<?xml version="1.0" encoding="utf-8"?>
<!-- Generator: Adobe Illustrator 24.1.2, SVG Export Plug-In . SVG Version: 6.00 Build 0)  -->
<svg version="1.1" id="Layer_1" xmlns="http://www.w3.org/2000/svg" xmlns:xlink="http://www.w3.org/1999/xlink" x="0px" y="0px"
	 viewBox="0 0 1000 1000" style="enable-background:new 0 0 1000 1000;" xml:space="preserve">
<style type="text/css">
	.st0{fill:#FFF500;}
	.st1{enable-background:new    ;}
	.st2{clip-path:url(#SVGID_2_);enable-background:new    ;}
	.st3{clip-path:url(#SVGID_4_);enable-background:new    ;}
	.st4{clip-path:url(#SVGID_6_);enable-background:new    ;}
	.st5{clip-path:url(#SVGID_8_);enable-background:new    ;}
	.st6{clip-path:url(#SVGID_10_);enable-background:new    ;}
	.st7{clip-path:url(#SVGID_12_);enable-background:new    ;}
	.st8{clip-path:url(#SVGID_14_);enable-background:new    ;}
</style>
<path class="st0" d="M740.9,1000H259.1C116,1000,0,884,0,740.9V259.1C0,116,116,0,259.1,0h481.8C884,0,1000,116,1000,259.1v481.8
	C1000,884,884,1000,740.9,1000z"/>
<g>
	<image style="overflow:visible;" width="554" height="682" xlink:href="FFE4D5D9.png"  transform="matrix(1 0 0 1 261.7872 175)">
	</image>
	<g>
		<g class="st1">
			<g class="st1">
				<defs>
					<path id="SVGID_1_" class="st1" d="M649.8,788.9l-7.5-3.4c-0.4-0.2-0.8-0.4-1.1-0.8l7.5,3.4C649,788.4,649.4,788.7,649.8,788.9
						z"/>
				</defs>
				<clipPath id="SVGID_2_">
					<use xlink:href="#SVGID_1_"  style="overflow:visible;"/>
				</clipPath>
				<g class="st2">
					<path d="M649.8,788.9l-7.5-3.4c-0.4-0.2-0.8-0.4-1.1-0.8l7.5,3.4C649,788.4,649.4,788.7,649.8,788.9"/>
				</g>
			</g>
			<g>
				<polygon points="648.7,788.1 641.3,784.7 472.5,643.8 480,647.1 				"/>
			</g>
			<g class="st1">
				<defs>
					<path id="SVGID_3_" class="st1" d="M471.4,643.1l7.5,3.4c0.4,0.2,0.7,0.4,1.1,0.7l-7.5-3.4
						C472.2,643.5,471.8,643.3,471.4,643.1z"/>
				</defs>
				<clipPath id="SVGID_4_">
					<use xlink:href="#SVGID_3_"  style="overflow:visible;"/>
				</clipPath>
				<g class="st3">
					<path d="M480,647.1l-7.5-3.4c-0.3-0.3-0.7-0.5-1.1-0.7l7.5,3.4C479.3,646.7,479.7,646.9,480,647.1"/>
				</g>
			</g>
			<g class="st1">
				<defs>
					<path id="SVGID_5_" class="st1" d="M718,304.6l7.5,3.4c-3.7-1.6-7.9-2.3-12.5-1.7c-41.9,5.9-83.9,11.4-125.9,17.3
						c-1.2,0.2-2.8,0.8-3.4,2.1l-7.5-3.4c0.7-1.3,2.2-2,3.4-2.1c41.9-5.9,83.9-11.4,125.9-17.3C710.1,302.2,714.3,302.9,718,304.6z"
						/>
				</defs>
				<clipPath id="SVGID_6_">
					<use xlink:href="#SVGID_5_"  style="overflow:visible;"/>
				</clipPath>
				<g class="st4">
					<path d="M583.7,325.6l-7.5-3.4c0.6-1.2,1.9-1.8,3-2.1l7.5,3.4C585.6,323.8,584.3,324.5,583.7,325.6"/>
					<path d="M586.7,323.6l-7.5-3.4c0.1,0,0.3-0.1,0.4-0.1c41.9-5.9,83.9-11.4,125.9-17.3c0.2,0,0.4,0,0.5-0.1l7.5,3.4
						c-0.2,0-0.3,0-0.5,0.1c-41.9,5.9-83.9,11.4-125.9,17.3C587,323.5,586.9,323.5,586.7,323.6"/>
					<path d="M713.5,306.2l-7.5-3.4c0.7-0.1,1.3-0.1,1.9-0.2l7.5,3.4C714.8,306,714.2,306.1,713.5,306.2"/>
					<path d="M715.5,306l-7.5-3.4c0.5,0,1.1,0,1.6,0l7.5,3.4C716.5,306,716,306,715.5,306"/>
					<path d="M717.1,306l-7.5-3.4c0.5,0,1,0,1.5,0.1l7.5,3.4C718,306,717.6,306,717.1,306"/>
					<path d="M718.5,306.1l-7.5-3.4c0.4,0,0.9,0.1,1.3,0.2l7.5,3.4C719.4,306.2,719,306.1,718.5,306.1"/>
					<path d="M719.8,306.2l-7.5-3.4c0.4,0.1,0.8,0.1,1.2,0.2l7.5,3.4C720.7,306.4,720.3,306.3,719.8,306.2"/>
					<path d="M721.1,306.5l-7.5-3.4c0.4,0.1,0.8,0.2,1.2,0.3l7.5,3.4C721.9,306.7,721.5,306.6,721.1,306.5"/>
					<path d="M722.3,306.8l-7.5-3.4c0.4,0.1,0.8,0.2,1.1,0.3l7.5,3.4C723,307,722.6,306.9,722.3,306.8"/>
					<path d="M723.4,307.1l-7.5-3.4c0.4,0.1,0.8,0.3,1.1,0.4l7.5,3.4C724.2,307.4,723.8,307.2,723.4,307.1"/>
					<path d="M724.5,307.5l-7.5-3.4c0.3,0.1,0.7,0.3,1,0.4l7.5,3.4C725.2,307.8,724.8,307.6,724.5,307.5"/>
				</g>
			</g>
			<g class="st1">
				<defs>
					<path id="SVGID_7_" class="st1" d="M356.6,828l-7.5-3.4c-1.6-0.7-2.7-2.2-2.9-3.8l7.5,3.4C353.9,825.8,355,827.3,356.6,828z"/>
				</defs>
				<clipPath id="SVGID_8_">
					<use xlink:href="#SVGID_7_"  style="overflow:visible;"/>
				</clipPath>
				<g class="st5">
					<path d="M356.6,828l-7.5-3.4c-1.6-0.7-2.7-2.2-2.9-3.8l7.5,3.4C353.9,825.8,355,827.3,356.6,828"/>
				</g>
			</g>
			<g class="st1">
				<defs>
					<path id="SVGID_9_" class="st1" d="M456.4,515.1l-7.5-3.4c0.8,0.4,1.8,0.5,2.7,0.4c1.4-0.2,2.7-1,3.7-2.4
						c40.4-62.4,80.8-125.1,120.9-187.4l7.5,3.4c-40,62.3-80.4,125.1-120.9,187.4c-1,1.4-2.3,2.2-3.7,2.4
						C458.2,515.6,457.2,515.5,456.4,515.1z"/>
				</defs>
				<clipPath id="SVGID_10_">
					<use xlink:href="#SVGID_9_"  style="overflow:visible;"/>
				</clipPath>
				<g class="st6">
					<path d="M456.4,515.1l-7.5-3.4c0.1,0,0.1,0.1,0.2,0.1l7.5,3.4C456.6,515.2,456.5,515.1,456.4,515.1"/>
					<path d="M456.6,515.2l-7.5-3.4c0.1,0,0.2,0.1,0.2,0.1l7.5,3.4C456.8,515.3,456.7,515.2,456.6,515.2"/>
					<path d="M456.9,515.3l-7.5-3.4c0.1,0,0.2,0.1,0.3,0.1l7.5,3.4C457,515.3,457,515.3,456.9,515.3"/>
					<path d="M457.1,515.4l-7.5-3.4c0.1,0,0.2,0,0.3,0.1l7.5,3.4C457.3,515.4,457.2,515.4,457.1,515.4"/>
					<path d="M457.4,515.4l-7.5-3.4c0.1,0,0.2,0,0.3,0.1l7.5,3.4C457.6,515.5,457.5,515.4,457.4,515.4"/>
					<path d="M457.7,515.5l-7.5-3.4c0.1,0,0.2,0,0.3,0l7.5,3.4C457.8,515.5,457.8,515.5,457.7,515.5"/>
					<path d="M457.9,515.5l-7.5-3.4c0.1,0,0.2,0,0.3,0l7.5,3.4C458.2,515.5,458,515.5,457.9,515.5"/>
					<path d="M458.3,515.5l-7.5-3.4c0.1,0,0.2,0,0.3,0l7.5,3.4C458.5,515.5,458.4,515.5,458.3,515.5"/>
					<path d="M458.6,515.5l-7.5-3.4c0.1,0,0.3,0,0.4,0l7.5,3.4C458.9,515.5,458.7,515.5,458.6,515.5"/>
					<path d="M459,515.5l-7.5-3.4c0,0,0.1,0,0.1,0c0.1,0,0.3,0,0.4-0.1l7.5,3.4c-0.1,0-0.3,0-0.4,0.1
						C459.1,515.5,459,515.5,459,515.5"/>
					<path d="M459.5,515.4l-7.5-3.4c1.3-0.3,2.5-1,3.3-2.4c40.4-62.4,80.8-125.1,120.9-187.4l7.5,3.4
						c-40,62.3-80.4,125.1-120.9,187.4C461.9,514.4,460.7,515.1,459.5,515.4"/>
				</g>
			</g>
			<g class="st1">
				<defs>
					<path id="SVGID_11_" class="st1" d="M400.6,171.5l7.5,3.4c-0.8-0.3-1.7-0.5-2.6-0.4l-7.5-3.4
						C398.9,171,399.8,171.1,400.6,171.5z"/>
				</defs>
				<clipPath id="SVGID_12_">
					<use xlink:href="#SVGID_11_"  style="overflow:visible;"/>
				</clipPath>
				<g class="st7">
					<path d="M405.5,174.5l-7.5-3.4c0,0,0.1,0,0.1,0l7.5,3.4C405.5,174.4,405.5,174.5,405.5,174.5"/>
					<path d="M405.6,174.4l-7.5-3.4c0.1,0,0.3,0,0.4,0l7.5,3.4C405.8,174.4,405.7,174.4,405.6,174.4"/>
					<path d="M406,174.4l-7.5-3.4c0.1,0,0.2,0,0.3,0l7.5,3.4C406.2,174.4,406.1,174.4,406,174.4"/>
					<path d="M406.3,174.4l-7.5-3.4c0.1,0,0.2,0,0.3,0l7.5,3.4C406.5,174.4,406.4,174.4,406.3,174.4"/>
					<path d="M406.6,174.4l-7.5-3.4c0.1,0,0.2,0,0.3,0l7.5,3.4C406.8,174.5,406.7,174.4,406.6,174.4"/>
					<path d="M406.9,174.5l-7.5-3.4c0.1,0,0.2,0,0.3,0l7.5,3.4C407,174.5,407,174.5,406.9,174.5"/>
					<path d="M407.1,174.5l-7.5-3.4c0.1,0,0.2,0,0.2,0.1l7.5,3.4C407.3,174.6,407.2,174.5,407.1,174.5"/>
					<path d="M407.4,174.6l-7.5-3.4c0.1,0,0.2,0,0.2,0.1l7.5,3.4C407.5,174.6,407.5,174.6,407.4,174.6"/>
					<path d="M407.6,174.6l-7.5-3.4c0.1,0,0.2,0.1,0.2,0.1l7.5,3.4C407.8,174.7,407.7,174.7,407.6,174.6"/>
					<path d="M407.9,174.7l-7.5-3.4c0.1,0,0.1,0.1,0.2,0.1l7.5,3.4C408,174.8,407.9,174.8,407.9,174.7"/>
				</g>
			</g>
			<g>
				<polygon points="277.7,192.4 270.2,189.1 398,171.1 405.5,174.5 				"/>
			</g>
			<g>
				<polygon points="353.7,824.2 346.2,820.8 266,195 273.5,198.4 				"/>
			</g>
			<g>
				<path d="M405.5,174.5c2.8-0.4,5.2,1.8,5.5,4.2L453.5,511c0.4,3.2,3,4.8,5.6,4.4c1.4-0.2,2.7-1,3.7-2.4
					c40.4-62.4,80.8-125.1,120.9-187.4c0.7-1.3,2.2-2,3.4-2.1c41.9-5.9,83.9-11.4,125.9-17.3c19.8-2.8,33.3,19.3,22.3,36.2
					c-46.7,71.1-93.4,142.6-140.1,213.7c-1.4,2.3-1,5.1,0.8,6.5c63.9,56.4,127.3,112.8,191.2,168.8c14.8,13.2,7.4,38.3-12.4,41
					c-40.7,5.7-81.5,11-122.2,16.8c-1.2,0.2-2.9,0-3.8-1.1L480,647.1c-1.2-0.9-2.7-1.2-4-1.1c-2.6,0.4-4.8,2.6-4.5,5.6l19,154.9
					c0.3,2.6-1.4,5.2-4,5.6l-127.4,16.2c-2.8,0.4-5.1-1.8-5.5-4.2l-80.2-625.8c-0.4-3.3,1.3-5.6,4.2-6L405.5,174.5z"/>
			</g>
			<g class="st1">
				<defs>
					<path id="SVGID_13_" class="st1" d="M273.5,198.4L266,195c-0.4-3.3,1.3-5.6,4.2-6l7.5,3.4C274.8,192.8,273.1,195.1,273.5,198.4
						z"/>
				</defs>
				<clipPath id="SVGID_14_">
					<use xlink:href="#SVGID_13_"  style="overflow:visible;"/>
				</clipPath>
				<g class="st8">
					<path d="M273.5,198.4L266,195c-0.4-3.1,1.2-5.3,3.7-5.9l7.5,3.4C274.7,193.1,273.1,195.3,273.5,198.4"/>
					<path d="M277.2,192.5l-7.5-3.4c0.1,0,0.3-0.1,0.4-0.1l7.5,3.4C277.5,192.4,277.4,192.5,277.2,192.5"/>
				</g>
			</g>
		</g>
	</g>
</g>
</svg>
