<?xml version="1.0" encoding="utf-8"?>
<!-- Generator: Adobe Illustrator 24.1.2, SVG Export Plug-In . SVG Version: 6.00 Build 0)  -->
<svg version="1.1" id="Layer_1" xmlns="http://www.w3.org/2000/svg" xmlns:xlink="http://www.w3.org/1999/xlink" x="0px" y="0px"
	 viewBox="0 0 1000 1000" style="enable-background:new 0 0 1000 1000;" xml:space="preserve">
<style type="text/css">
	.st0{fill:#FFF500;}
	.st1{display:none;}
	.st2{display:inline;}
</style>
<path class="st0" d="M740.9,1000H259.1C116,1000,0,884,0,740.9V259.1C0,116,116,0,259.1,0h481.8C884,0,1000,116,1000,259.1v481.8
	C1000,884,884,1000,740.9,1000z"/>
<path d="M311.1,146.9h139.5c3,0,5.5,2.5,5.5,5.5v359.7c0,5.1,6.3,7.4,9.6,3.6c51.8-60.4,103.6-120.7,155.4-181.1
	c1-1.2,2.6-1.9,4.2-1.9c45.8,0.1,91.6,0.3,137.4,0.4c21.5,0.1,33,25.4,18.9,41.6c-59.7,68.8-119.5,137.6-179.2,206.4
	c-1.8,2.1-1.8,5.1,0,7.2c60.5,69.4,121,138.8,181.5,208.2c14.2,16.3,2.6,41.8-19.1,41.8c-44.5-0.1-88.9-0.3-133.4-0.4
	c-1.5,0-3-0.6-4-1.8L466.1,661.2c-3.4-3.7-9.5-1.3-9.5,3.7l-1,167.5c0,3.1-2.5,5.5-5.6,5.4l-139-2.6c-3-0.1-5.4-2.5-5.4-5.5V152.4
	C305.7,149.3,308.1,146.9,311.1,146.9z"/>
<g class="st1">
	<path class="st2" d="M1273.9,524.4v303.8c0,5.6-4.5,10.1-10.1,10.1h-128.1c-5.5,0-10-4.5-10.1-10c-1-93.6-1.9-187.3-2.9-280.9
		c0-0.7,0-1.3,0.2-1.9c1.1-6,4.8-31.4-12.9-53c-14.2-17.3-33.3-21.3-39.3-22.2c-0.5-0.1-0.9-0.1-1.4-0.1
		c-72.9-0.5-145.8-1-218.7-1.6c-5.5,0-10-4.5-10-10.1V346.9c0-5.6,4.5-10.1,10.1-10.1c80.1,0,131,0.2,238,0
		C1199.4,336.6,1274.1,470.5,1273.9,524.4z"/>
	<path class="st2" d="M952.3,702h110.1c7.3,0,13.2,6,17.3,13.7v109.2c-4.1,7-10,12.9-17.3,12.9H924.1c-158,1.4-181.4-318.1,0-319.6
		h138.3c7.3,0,13.2,6,17.3,12.5v107c-4.1,8.1-10.2,16.2-17.5,16.2c-35.4-0.3-110.3-0.3-110.3-0.3s-5.9-0.5-9.9,3.8
		c-8.4,8.8-7.4,20.9-7.3,22c0.2,2.5,1.1,9.9,7.2,16.2C945.7,699.5,950,701.2,952.3,702z"/>
</g>
<path class="st1" d="M1343.9,836.4h116.4c9.3,0,16.8-7.5,16.8-16.8V540.4c0,0,13.8-74.1,81.6-74.5c70.7-0.4,83.8,70,83.8,70v283.6
	c0,9.3,7.5,16.8,16.8,16.8h117.5c9.3,0,16.8-7.5,16.8-16.8V531.8c0,0-14.6-209.6-233.3-209.6c-230.3,0-233.3,215.9-233.3,215.9
	v281.4C1327.1,828.8,1334.6,836.4,1343.9,836.4z"/>
<g class="st1">
	<path class="st2" d="M2222.4,171.9l-0.5,155.3c-35.1-17.4-74.5-27.1-116.5-27.1c-149.2,0-270.2,123-270.2,274.7
		s121,270.5,270.2,274.7c152.2,4.3,274-117.6,270.2-274.7l0.1-402.8c0-15-12.2-27.2-27.2-27.2h-98.9
		C2234.6,144.8,2222.5,156.9,2222.4,171.9z M2117,728.2c-85.2,7.1-147.8-58.6-148.6-152.7c-0.7-87.7,63.2-153.3,148.6-152.7
		c84.2,0.6,147.9,65.8,148.6,152.7C2266.2,661.6,2203.3,721,2117,728.2z"/>
	<path class="st2" d="M2099.3,585.3V469.4c0-5,4-9,9-9h13.8c5,0,9,4,9,9v87.7c0,3,2.5,5.5,5.5,5.5l88-0.2c5,0,9,4,9,9v14
		c0,5-4,9-9,9h-116.2C2103.3,594.3,2099.3,590.2,2099.3,585.3z"/>
</g>
<g class="st1">
	<path class="st2" d="M3004.9,171.9l-0.5,155.3c-35.1-17.4-74.5-27.1-116.5-27.1c-149.2,0-270.2,123-270.2,274.7
		s121,270.5,270.2,274.7c152.2,4.3,274-117.6,270.2-274.7l0.1-402.8c0-15-12.2-27.2-27.2-27.2h-98.8
		C3017.1,144.8,3004.9,157,3004.9,171.9z M2899.4,728.2c-85.2,7.1-147.8-58.6-148.6-152.7c-0.7-87.7,63.2-153.3,148.6-152.7
		c84.2,0.6,147.9,65.8,148.6,152.7C3048.6,661.6,2985.7,721,2899.4,728.2z"/>
	<path class="st2" d="M2881.7,585.3V469.4c0-5,4-9,9-9h13.8c5,0,9,4,9,9v87.7c0,3,2.5,5.5,5.5,5.5l88-0.2c5,0,9,4,9,9v14
		c0,5-4,9-9,9h-116.2C2885.8,594.3,2881.7,590.2,2881.7,585.3z"/>
</g>
<g class="st1">
	<path class="st2" d="M2426.1,159.6v104c0,8.2,6.8,14.8,15.2,14.8h118.5c8.4,0,15.2-6.6,15.2-14.8v-104c0-8.2-6.8-14.8-15.2-14.8
		h-118.5C2432.9,144.8,2426.1,151.5,2426.1,159.6z"/>
	<path class="st2" d="M2426.1,348.2v471.1c0,12.1,10.1,21.9,22.6,21.9h103.8c12.5,0,22.6-9.8,22.6-21.9V348.2
		c0-12.1-10.1-21.9-22.6-21.9h-103.8C2436.2,326.3,2426.1,336.1,2426.1,348.2z"/>
</g>
</svg>
